<svg width="100%" height="100%" viewBox="0 0 159 33" fill="none" xmlns="http://www.w3.org/2000/svg">
                  <g clip-path="url(#clip0_2002_1165)">
                    <path d="M12.2093 8.14109C14.4574 8.14109 16.278 6.32049 16.278 4.07239C16.278 1.82428 14.4574 0 12.2093 0C9.96122 0 8.14062 1.8206 8.14062 4.0687C8.14062 6.31681 9.96122 8.1374 12.2093 8.1374V8.14109Z" fill="#C2C2C2" fill-opacity="0.7"></path>
                    <path d="M24.4233 16.2822C24.4233 11.786 20.7784 8.14111 16.2822 8.14111V16.2822C16.2822 11.786 12.6373 8.14111 8.14109 8.14111C3.64488 8.14111 0 11.786 0 16.2822V24.4233C0 28.9195 3.64488 32.5644 8.14109 32.5644V24.4233C8.14109 28.9195 11.786 32.5644 16.2822 32.5644C20.7784 32.5644 24.4233 28.9195 24.4233 24.4233H16.2822C20.7784 24.4233 24.4233 20.7784 24.4233 16.2822ZM16.2822 20.3509C16.2822 22.599 14.4616 24.4196 12.2135 24.4196C9.96537 24.4196 8.14478 22.599 8.14478 20.3509C8.14478 18.1028 9.96537 16.2822 12.2135 16.2822C14.4616 16.2822 16.2822 18.1028 16.2822 20.3509Z" fill="#C2C2C2" fill-opacity="0.7"></path>
                    <path d="M39.3933 12.5342C41.3797 12.5342 42.8907 13.0944 43.9263 14.211C44.9619 15.3314 45.4779 16.7503 45.4779 18.4751C45.4779 19.6544 45.2052 20.7306 44.6634 21.6961C44.1216 22.6617 43.3219 23.3877 42.2679 23.8742L45.7911 28.7942H40.8085L37.7238 24.4381H35.5973V28.7942H31.4512V12.5379H39.3933V12.5342ZM35.601 16.3265V20.6605H39.1648C39.9424 20.6605 40.521 20.4578 40.8932 20.0561C41.2691 19.6544 41.4571 19.1384 41.4571 18.5119C41.4571 17.0525 40.6942 16.3228 39.1648 16.3228H35.601V16.3265Z" fill="#C2C2C2" fill-opacity="0.7"></path>
                    <path d="M47.2207 12.5342H59.7069V16.5771H51.3889V18.91H58.2254V22.6838H51.3889V24.7698H59.7069V28.7942H47.2207V12.5379V12.5342Z" fill="#C2C2C2" fill-opacity="0.7"></path>
                    <path d="M61.0781 12.5342H75.3775V16.5771H70.3138V28.7906H66.1456V16.5771H61.0818V12.5342H61.0781Z" fill="#C2C2C2" fill-opacity="0.7"></path>
                    <path d="M77.9319 14.701C79.6346 13.0462 81.6579 12.2207 84.0092 12.2207C86.3605 12.2207 88.4169 13.0462 90.1049 14.701C91.7928 16.3557 92.6367 18.3422 92.6367 20.664C92.6367 22.9858 91.7928 24.9722 90.1049 26.627C88.4169 28.2818 86.3826 29.1073 84.0092 29.1073C81.6358 29.1073 79.6346 28.2818 77.9319 26.627C76.2293 24.9722 75.3779 22.9858 75.3779 20.664C75.3779 18.3422 76.2293 16.3557 77.9319 14.701ZM80.8803 23.7892C81.7427 24.6516 82.7856 25.0828 84.0055 25.0828C85.2254 25.0828 86.3052 24.6553 87.1528 23.8003C88.0005 22.9453 88.4243 21.8986 88.4243 20.664C88.4243 19.4294 88.0005 18.3827 87.1528 17.5277C86.3052 16.6727 85.2549 16.2452 84.0055 16.2452C82.7561 16.2452 81.739 16.6764 80.8803 17.5388C80.0179 18.4011 79.5867 19.4441 79.5867 20.664C79.5867 21.8839 80.0179 22.9305 80.8803 23.7892Z" fill="#C2C2C2" fill-opacity="0.7"></path>
                    <path d="M97.2027 23.9145V24.0177C97.2027 24.3789 97.4423 24.7143 97.9214 25.0275C98.4005 25.3408 99.0786 25.4956 99.952 25.4956C100.674 25.4956 101.198 25.3998 101.526 25.2044C101.854 25.0091 102.016 24.7732 102.016 24.4968C102.016 24.1651 101.809 23.8703 101.4 23.6197C100.991 23.3691 100.273 23.0706 99.2444 22.7241C98.5921 22.503 98.0467 22.3077 97.6081 22.1419C97.1695 21.976 96.6499 21.7291 96.0455 21.4011C95.4411 21.0731 94.9583 20.734 94.5971 20.3802C94.2359 20.0264 93.9227 19.5768 93.6573 19.035C93.392 18.4933 93.263 17.9036 93.263 17.2624C93.263 15.7329 93.8527 14.5093 95.0357 13.5954C96.2187 12.6777 97.7445 12.2207 99.6203 12.2207C101.496 12.2207 103.144 12.6998 104.393 13.658C105.642 14.6162 106.269 15.8877 106.269 17.4724V17.7009H102.204V17.5535C102.204 17.1076 101.986 16.7095 101.548 16.3557C101.109 16.0019 100.494 15.825 99.7014 15.825C99.0491 15.825 98.5553 15.9319 98.2199 16.1494C97.8845 16.3668 97.7187 16.6248 97.7187 16.9307C97.7187 17.2366 97.9066 17.4982 98.2825 17.712C98.6584 17.9257 99.3661 18.2169 100.409 18.578C100.866 18.7439 101.223 18.8729 101.47 18.965C101.717 19.0572 102.093 19.2083 102.587 19.422C103.081 19.6358 103.472 19.8385 103.766 20.0264C104.058 20.2144 104.4 20.465 104.787 20.7782C105.178 21.0915 105.48 21.4085 105.694 21.7254C105.908 22.0423 106.096 22.4256 106.258 22.8716C106.416 23.3175 106.497 23.7819 106.497 24.2683C106.497 25.8125 105.9 27.0029 104.706 27.8432C103.512 28.6835 101.953 29.1036 100.037 29.1036C98.0209 29.1036 96.3698 28.6577 95.0762 27.7695C93.7826 26.8813 93.1377 25.6577 93.1377 24.1025V23.9145H97.2027Z" fill="#C2C2C2" fill-opacity="0.7"></path>
                    <path d="M111.063 28.794L106.497 12.5376H110.938L113.566 22.2302L116.61 12.5376H120.321L123.365 22.2081L125.993 12.5376H130.452L125.886 28.794H121.57L118.464 19.3519L115.379 28.794H111.063Z" fill="#C2C2C2" fill-opacity="0.7"></path>
                    <path d="M145.452 12.5342H152.624C154.666 12.5342 156.239 13.1349 157.345 14.3364C158.451 15.5378 159.003 17.0156 159.003 18.7662C159.003 20.5168 158.454 22.0978 157.356 23.2993C156.258 24.5007 154.68 25.1015 152.624 25.1015H149.624V28.7906H145.456V12.5342H145.452ZM149.62 16.3265V21.3092H152.392C153.991 21.3092 154.787 20.4689 154.787 18.7883C154.787 18.0807 154.592 17.4911 154.205 17.0267C153.814 16.5623 153.21 16.3302 152.392 16.3302H149.62V16.3265Z" fill="#C2C2C2" fill-opacity="0.7"></path>
                    <path d="M139.692 28.794H144.151L139.585 12.5376H133.497L128.931 28.794H133.39L133.884 26.9697H139.191L139.685 28.794H139.692ZM134.916 23.1958L136.545 17.1997L138.174 23.1958H134.916Z" fill="#C2C2C2" fill-opacity="0.7"></path>
                  </g>
                  <defs>
                    <clipPath id="clip0_2002_1165">
                      <rect width="159" height="32.5644" fill="white"></rect>
                    </clipPath>
                  </defs>
                </svg>
